<svg id="visual" viewBox="0 0 960 540" width="960" height="540" xmlns="http://www.w3.org/2000/svg" xmlns:xlink="http://www.w3.org/1999/xlink" version="1.1"><rect x="0" y="0" width="960" height="540" fill="#79addc"></rect><path d="M0 373L137 348L274 273L411 346L549 307L686 344L823 317L960 285L960 541L823 541L686 541L549 541L411 541L274 541L137 541L0 541Z" fill="#a5ffd6"></path><path d="M0 321L137 367L274 394L411 338L549 387L686 351L823 346L960 364L960 541L823 541L686 541L549 541L411 541L274 541L137 541L0 541Z" fill="#bae495"></path><path d="M0 396L137 374L274 364L411 435L549 374L686 402L823 413L960 389L960 541L823 541L686 541L549 541L411 541L274 541L137 541L0 541Z" fill="#d9c262"></path><path d="M0 436L137 415L274 445L411 440L549 471L686 469L823 422L960 413L960 541L823 541L686 541L549 541L411 541L274 541L137 541L0 541Z" fill="#f49853"></path><path d="M0 490L137 505L274 487L411 492L549 478L686 458L823 493L960 494L960 541L823 541L686 541L549 541L411 541L274 541L137 541L0 541Z" fill="#ff686b"></path></svg>